# xmcd CD database file
#
# Track frame offsets:
#	150
#	24790
#	43675
#	56865
#	80425
#	106690
#	132062
#	152250
#	176615
#	204087
#
# Disc length: 3027 seconds
#
# Revision: 0
# Processed by: cddbd v1.4PL0 Copyright (c) Steve Scherf et al.
# Submitted via: CDex 1.50
#
DISCID=6b0bd10a
DTITLE=Will and Rainbow - Harmony
DYEAR=2003
DGENRE=Jazz
TTITLE0=Israel
TTITLE1=Will You Love Me Tomorrow
TTITLE2=Rainbow
TTITLE3=Peace
TTITLE4=New and Old
TTITLE5=For the Love of You
TTITLE6=One Finger Snap
TTITLE7=Foolish Door
TTITLE8=Trouble in Mind
TTITLE9=Kentucky
EXTD=YEAR: 2003
EXTT0=
EXTT1=
EXTT2=
EXTT3=
EXTT4=
EXTT5=
EXTT6=
EXTT7=
EXTT8=
EXTT9=
PLAYORDER=
